<svg width="44" height="44" viewBox="0 0 44 44" fill="none" xmlns="http://www.w3.org/2000/svg">
<mask id="path-1-inside-1_470_4973" fill="white">
<path fill-rule="evenodd" clip-rule="evenodd" d="M21.8059 11C18.294 11 15.2871 13.5175 14.6697 16.9748L12.5748 28.7064C12.4654 29.3193 12.9366 29.8822 13.5592 29.8822H21.8059H30.0526C30.6753 29.8822 31.1465 29.3193 31.0371 28.7064L28.9421 16.9748C28.3247 13.5175 25.3179 11 21.8059 11Z"/>
</mask>
<path d="M14.6697 16.9748L16.6386 17.3263L14.6697 16.9748ZM28.9421 16.9748L30.911 16.6232V16.6232L28.9421 16.9748ZM31.0371 28.7064L29.0682 29.058L31.0371 28.7064ZM16.6386 17.3263C17.0856 14.8229 19.2629 13 21.8059 13V9C17.325 9 13.4886 12.212 12.7009 16.6232L16.6386 17.3263ZM14.5437 29.058L16.6386 17.3263L12.7009 16.6232L10.606 28.3548L14.5437 29.058ZM21.8059 27.8822H13.5592V31.8822H21.8059V27.8822ZM21.8059 31.8822H30.0526V27.8822H21.8059V31.8822ZM33.0059 28.3548L30.911 16.6232L26.9733 17.3263L29.0682 29.058L33.0059 28.3548ZM30.911 16.6232C30.1233 12.212 26.2869 9 21.8059 9V13C24.349 13 26.5262 14.8229 26.9733 17.3263L30.911 16.6232ZM30.0526 31.8822C31.9205 31.8822 33.3343 30.1936 33.0059 28.3548L29.0682 29.058C28.9587 28.445 29.43 27.8822 30.0526 27.8822V31.8822ZM10.606 28.3548C10.2776 30.1936 11.6914 31.8822 13.5592 31.8822V27.8822C14.1819 27.8822 14.6531 28.445 14.5437 29.058L10.606 28.3548Z" fill="black" mask="url(#path-1-inside-1_470_4973)"/>
<path d="M19.1085 31.2308C21.2874 32.2651 22.4675 32.2475 24.5034 31.2308" stroke="black" stroke-width="2" stroke-linecap="round" stroke-linejoin="round"/>
</svg>
